<svg version="1.1" xmlns="http://www.w3.org/2000/svg" xmlns:xlink="http://www.w3.org/1999/xlink" width="406.91733" height="78.47481" viewBox="0,0,406.91733,78.47481"><g transform="translate(-41.06241,-136.06968)"><g data-paper-data="{&quot;isPaintingLayer&quot;:true}" fill-rule="nonzero" stroke="none" stroke-width="1" stroke-linecap="butt" stroke-linejoin="miter" stroke-miterlimit="10" stroke-dasharray="" stroke-dashoffset="0" style="mix-blend-mode: normal"><path d="M284.28772,178.0398l-7.13088,1.06921l2.49581,-12.83044z" fill="#f9a83a"/><text transform="translate(41.80808,199.96875) scale(1.49134,1.49134)" font-size="40" xml:space="preserve" fill="#4242c3" fill-rule="nonzero" stroke="none" stroke-width="1" stroke-linecap="butt" stroke-linejoin="miter" stroke-miterlimit="10" stroke-dasharray="" stroke-dashoffset="0" font-family="Marker" font-weight="normal" text-anchor="start" style="mix-blend-mode: normal"><tspan x="0" dy="0">obfu</tspan></text><text transform="translate(382.05808,196.46875) scale(1.49134,1.49134)" font-size="40" xml:space="preserve" fill="#4242c3" fill-rule="nonzero" stroke="none" stroke-width="1" stroke-linecap="butt" stroke-linejoin="miter" stroke-miterlimit="10" stroke-dasharray="" stroke-dashoffset="0" font-family="Marker" font-weight="normal" text-anchor="start" style="mix-blend-mode: normal"><tspan x="0" dy="0">or</tspan></text><g><path d="M376.91372,212.04968c-4.63506,0.3564 -7.48742,0.71281 -8.20051,1.06921l-0.35654,0.3564c-1.06963,0.3564 -2.4958,1.0692 -4.27852,1.0692c-2.13926,0 -4.63506,-0.71281 -6.41778,-2.49481c-0.71308,-0.7128 -1.42618,-1.42561 -1.78272,-2.13841h-8.2005c-1.42618,0 -2.85235,-0.3564 -3.92198,-1.0692c-0.35654,0.3564 -1.06963,0.3564 -1.42618,0.7128c-2.85235,1.4256 -5.34815,1.4256 -7.13087,1.4256h-1.78272c-5.34816,0 -9.62667,-1.782 -12.47902,-4.98961c-1.78272,1.782 -4.27853,2.85121 -6.77433,2.85121l-13.19211,0.3564c-4.63506,0 -8.91359,-3.56401 -9.62668,-7.84082c-1.78272,1.06921 -3.56544,1.782 -5.7047,1.782c-2.13926,0 -4.27852,-0.7128 -6.06124,-1.782c-0.35654,-0.3564 -0.71308,-0.71281 -1.06963,-0.71281c-1.06963,0.7128 -2.49581,0.71281 -3.92198,0.71281h-1.06963c-1.42618,4.27681 -3.92198,7.12802 -7.84396,8.91002c-1.78272,0.7128 -3.92198,1.4256 -5.7047,1.4256c-1.78272,0 -3.92198,-0.3564 -5.7047,-1.0692c-1.78272,-0.7128 -3.2089,-1.782 -4.27853,-2.85121c-0.71309,0.3564 -1.42617,0.3564 -2.13926,0.7128l-10.33976,1.4256h-1.42618c-1.06963,0 -1.78272,0 -2.85235,-0.3564c-1.42618,1.4256 -3.20889,2.13841 -4.63507,2.85121c-2.85235,1.4256 -5.34815,1.4256 -7.13087,1.4256h-1.78272c-6.41779,0 -11.40939,-2.8512 -14.26174,-6.77161c-2.85235,1.782 -6.41779,2.8512 -9.62668,2.8512h-2.13926c0,0.3564 -0.35655,0.3564 -0.35655,0.71281c-1.78272,1.782 -4.27852,3.20761 -6.77433,3.20761h-0.71309c-4.99161,0 -9.27013,-3.92041 -9.62668,-9.26642v-0.3564c0,-1.782 -0.35655,-4.98961 0,-8.55362c0,-2.49481 0.35655,-6.41522 0.35655,-6.41522c0,-2.49481 1.06963,-4.63321 2.4958,-6.41521c-1.42618,-2.85121 -1.78271,-6.05882 -1.06963,-9.62283v-0.7128c0.35655,-2.13841 0.71309,-5.34601 2.13926,-8.55362c2.4958,-4.63321 7.13087,-7.12802 12.47902,-7.12802h2.49581c1.78272,-1.4256 3.92198,-2.49481 6.41778,-2.49481c5.34815,0 9.62668,4.63322 9.62668,9.97923v3.92041c1.78272,-0.7128 3.92198,-1.06921 6.06124,-1.06921c1.06963,0 1.78272,0 2.85235,0.3564c1.42618,-1.782 3.56544,-2.8512 5.7047,-3.20761c0.35655,-0.7128 0.71309,-1.06921 1.06963,-1.782c1.42618,-2.13841 3.92198,-3.56401 6.41778,-3.92041c2.13926,-0.3564 6.41779,-0.7128 11.4094,-0.7128c5.7047,0 10.33976,0.7128 13.9052,2.49481c1.06963,-3.92041 3.92198,-6.77162 8.2005,-7.48442l9.27013,-1.42561h1.42618c2.85235,0 5.34815,1.06921 7.13087,3.20761c0.71308,0.7128 1.78271,2.1384 2.13926,3.20761l0.35654,1.06921c1.78272,-1.06921 3.56544,-1.782 5.7047,-1.782l13.9052,-0.3564c6.77433,0 12.83557,-0.3564 12.83557,-0.7128h0.71309c2.49581,0 5.34815,1.06921 7.13087,2.85121c1.42618,1.4256 2.49581,3.20761 2.85235,5.34601h0.71309c1.06963,0 1.78272,0 2.85235,0.3564c1.42618,-1.782 3.56543,-2.85121 5.70469,-3.20761c1.78272,-2.49481 4.99162,-4.63321 8.55705,-4.63321h9.27013c1.78272,-2.13841 4.27853,-3.56401 7.48741,-3.56401h11.4094c5.34816,0 9.62668,4.27682 9.98322,9.62283c0,3.92041 -2.13926,7.48441 -5.34815,8.91002v21.74046c2.85235,1.4256 4.99161,4.63322 5.34815,8.19723c0.35654,5.34601 -3.92197,9.97922 -9.27013,10.33562z" fill="#f9a83a"/><g fill="#ffffff"><path d="M192.93723,181.7556c4.27853,0.7128 13.19211,2.13841 13.19211,11.04843c0,2.49481 -1.42618,5.34601 -3.56544,7.12802c-2.4958,2.13841 -5.7047,3.2076 -8.91359,2.4948c-2.4958,-0.3564 -4.63506,-1.4256 -6.06124,-2.4948v3.92041c0,1.06921 -1.06963,2.13841 -2.13926,2.13841c-1.06963,0 -2.13926,-1.0692 -2.13926,-2.13841c0,-0.3564 -0.35655,-3.56401 0,-7.84082c0.35655,-2.49481 0.35654,-6.77162 0.35654,-6.77162c0,-1.06921 1.06963,-2.1384 2.13926,-2.1384c1.06963,0 2.13926,1.0692 2.13926,2.1384v0.7128c0,1.06921 0.35654,2.85121 0.71309,4.27681c0.71309,1.4256 2.85235,2.4948 3.56544,2.8512c0.71309,0 1.06963,0.3564 1.78272,0.3564c2.13926,0.3564 4.27852,0 5.7047,-1.4256c1.42618,-1.06921 2.13926,-2.49481 2.13926,-3.92041c0,-3.56401 -3.92198,-4.63321 -9.62668,-5.70242c-5.34815,-1.06921 -7.48741,-5.34601 -6.77433,-12.11763v-0.7128c0.35655,-3.56401 1.06963,-9.62283 7.84395,-8.55362c2.4958,0 4.63506,1.78201 6.41779,3.56401v-3.92041c0,-1.06921 1.06964,-2.13841 2.13926,-2.13841c1.06963,0 2.13926,1.0692 2.13926,2.13841c0,0.3564 -0.71309,13.89963 -0.71309,13.89963c-0.35655,1.06921 -1.42617,2.13841 -2.4958,1.782c-1.06963,-0.3564 -1.78272,-1.06921 -1.78272,-1.782v-1.4256c-0.35655,-1.06921 -0.35654,-2.13841 -1.06963,-3.56401c-0.71309,-2.13841 -2.13926,-3.20761 -2.85235,-3.92041c-0.71309,-0.7128 -1.42618,-1.0692 -2.13926,-1.0692c-2.13926,0 -2.49581,1.0692 -3.2089,5.34601v0.7128c-0.71309,4.98961 0.71309,6.77162 3.2089,7.12802M252.83655,175.69679c1.06963,-1.4256 1.78272,-2.85121 1.78272,-3.56401v-0.71281c-1.06963,-1.782 -6.06124,-2.13841 -11.76594,-2.13841v9.97923c2.13926,-0.3564 4.27853,-0.71281 5.7047,-1.4256l1.06963,-0.3564c0.35655,0 1.42617,-0.3564 1.78271,-0.71281c0.71309,-0.3564 1.06963,-0.7128 1.42618,-1.0692M265.31558,194.94244c1.06963,0.3564 1.78272,1.42561 0.35654,2.13841c-0.71308,3.20761 -2.13926,4.27681 -3.92198,5.34601c-2.13926,1.06921 -3.92198,0.3564 -5.34815,0c-1.78272,-0.7128 -2.85235,-2.49481 -3.20889,-3.20761c-0.71309,-1.782 -1.06963,-6.05881 -1.06963,-7.12802c-0.35655,-5.34601 -1.06964,-7.48442 -1.78272,-8.55362c-0.35655,-0.7128 -1.06963,-1.06921 -1.78271,-1.06921h-0.71309c-1.78272,0.7128 -3.56544,1.0692 -5.7047,1.4256v12.47404l3.20889,-0.3564c1.06963,-0.3564 2.49581,0.7128 2.49581,1.782c0.35655,1.06921 -0.71309,2.49481 -1.78272,2.49481l-10.33976,1.4256c-1.06963,0.3564 -2.49581,-0.7128 -2.49581,-1.782c-0.35655,-1.06921 0.71309,-2.49481 1.78271,-2.49481l2.85235,-0.3564v-12.47403h-1.06963c-1.06963,0 -2.13926,-1.0692 -2.13926,-2.13841c0,-1.06921 1.06963,-2.13841 2.13926,-2.13841h1.06963v-9.97922c-1.06963,0 -2.13926,0.3564 -3.20889,0.3564c-1.06963,0.3564 -2.4958,-0.7128 -2.4958,-1.782c-0.35655,-1.06921 0.71309,-2.4948 1.78271,-2.4948c4.99161,-0.7128 20.32299,-2.49481 23.88842,3.56401c1.42618,2.49481 0.71309,5.34601 -1.78272,8.91002c0,0 -1.06963,1.06921 -2.13926,1.782c1.78272,1.782 3.20889,5.34602 3.20889,11.76124c0,1.782 0.35654,4.63322 0.71309,5.34601c0.35654,0.3564 0.71309,1.0692 0.71309,1.0692c1.06963,0.3564 1.78272,0.7128 2.13926,0.3564c0.35654,-0.3564 1.06963,-0.3564 1.78271,-2.8512c0.35654,-1.06921 1.78272,-1.78201 2.85235,-1.42561M343.04208,188.17082c1.06963,0 2.13926,0.71281 2.13926,1.4256v3.56401c-0.35654,0.7128 -0.71309,3.20761 -1.42618,4.63322c-0.71308,1.06921 -1.06964,1.78201 -1.78272,2.49481c-1.06963,1.06921 -2.13926,1.782 -3.20889,2.1384c-1.42618,0.7128 -2.85235,0.71281 -4.27853,0.71281h-1.06963c-7.84396,0 -10.33976,-6.41522 -10.6963,-9.62283v-9.97922c0.35654,-5.34601 2.13926,-8.55363 4.63506,-10.33563c3.20889,-2.13841 7.48741,-0.3564 8.55705,0.3564c1.06963,0.7128 2.13927,1.06921 2.85235,1.782v-3.92041c0,-1.06921 1.06963,-2.13841 2.13926,-2.13841c1.06963,0 2.13926,1.0692 2.13926,2.13841v9.62283c0,1.06921 -0.35654,1.782 -1.42617,2.13841c-1.06963,0 -2.13926,-0.35641 -2.49581,-1.06921c-0.35654,0 -2.13926,-3.2076 -4.99161,-4.27681c-2.49581,-0.7128 -3.92198,-1.0692 -4.99161,-0.3564c-1.42618,1.06921 -2.13926,3.56401 -2.49581,7.12802v9.26642c0,1.06921 0.71308,5.70242 6.41778,5.34601h1.42618c1.42618,0 1.78272,0 2.49581,-0.3564c0.71308,-0.3564 1.42618,-0.7128 1.78272,-1.0692c0.71308,-0.7128 1.06963,-1.06921 1.42618,-1.782c0.35654,-0.3564 0.71308,-1.782 0.71308,-2.85121v-2.8512c0,-1.06921 1.06963,-2.13841 2.13926,-2.13841M378.33989,202.42686c0,1.06921 -0.71309,2.13841 -1.78272,2.85121c-4.99161,0.3564 -9.27013,0.71281 -10.33976,1.4256c-1.42618,0.3564 -2.49581,0.7128 -3.20889,0c-1.06963,-0.7128 -1.06963,-2.13841 -0.35654,-2.85121c1.06963,-1.4256 3.20889,-1.42561 6.06124,-2.13841v-16.39444l-12.83557,2.1384v11.04843h3.56544c1.06963,0 2.13926,1.0692 2.13926,2.1384c0,1.06921 -1.06963,2.13841 -2.13926,2.13841l-11.76594,-0.3564c-1.06963,0 -2.13926,-1.0692 -2.13926,-2.1384c0,-1.06921 1.06963,-2.13841 2.13926,-2.13841h3.56543v-28.86848h-3.56543c-1.06963,0 -2.13926,-1.0692 -2.13926,-2.13841c0,-1.06921 1.06963,-2.13841 2.13926,-2.13841h11.4094c1.06963,0 2.13926,1.0692 2.13926,2.13841c0,1.06921 -1.06963,2.13841 -2.13926,2.13841h-3.56544v13.54324l12.83557,-2.13841v-14.96884h-3.56544c-1.06963,0 -2.13926,-1.0692 -2.13926,-2.13841c0,-1.06921 1.06963,-2.13841 2.13926,-2.13841l11.4094,-0.3564c1.06963,0 2.13926,1.0692 2.13926,2.1384c0,1.06921 -1.06963,2.13841 -2.13926,2.13841h-3.20889c0.35654,24.23527 0.35654,31.71969 0.35654,35.28369c1.06963,-0.3564 2.13927,-0.3564 2.85235,-0.3564c1.06963,0 2.13926,1.0692 2.13926,2.1384"/><path d="M282.78621,181.0428l-4.63506,-11.76123l-2.4958,12.83043zM294.55215,185.67601c1.06963,-0.3564 2.13926,0.35641 2.49581,1.06921c0.35654,1.06921 -0.35654,2.4948 -1.42618,2.8512c-3.92198,1.4256 -7.84396,3.20761 -8.91359,4.63322c-0.71308,0.7128 -2.13926,1.0692 -3.20889,0.3564c-0.71308,-0.7128 -1.06963,-1.782 -0.35654,-2.85121c1.06963,-1.06921 1.78271,-1.4256 3.56543,-2.49481l-2.13926,-5.34601l-9.98322,1.782l-0.35654,3.20761c1.42618,0 2.13926,1.0692 2.13926,2.13841c0,1.4256 -1.06963,2.1384 -2.13926,2.1384l-10.6963,-0.3564c-1.42618,0 -2.13927,-1.0692 -2.13927,-2.13841c0,-1.4256 1.06964,-2.13841 2.13927,-2.13841l6.41778,0.3564c1.06963,-4.98961 4.27853,-21.02766 4.99161,-24.94807c-2.85235,0.3564 -6.41778,0.71281 -6.41778,0.71281c-1.42618,0.3564 -2.49581,-0.7128 -2.49581,-1.782c-0.35654,-1.4256 0.71308,-2.49481 1.78271,-2.49481l9.27014,-1.0692c0.71308,0 1.42618,0.3564 1.78272,0.7128c0.35654,0 0.71308,0.71281 0.71308,1.06921l8.2005,19.60205l2.85235,6.77162c2.13926,-1.06921 3.20889,-1.4256 3.92198,-1.782"/><path d="M320.22329,163.93555c0.71308,0 1.42617,0.3564 1.42617,1.0692c0.71308,0.7128 0.71309,1.06921 0.71309,1.782c-0.35654,2.85121 -0.35654,7.84082 -0.35654,7.84082c0,0.7128 -0.35655,1.782 -1.06963,2.13841c-1.06963,0.7128 -2.13927,0.35641 -2.85235,-0.7128c0,-0.3564 -0.35654,-1.06921 -0.35654,-3.20761v-4.27681c-2.13926,0 -5.34816,0.3564 -8.91359,0.3564v28.15568h4.27852c1.06963,0 2.13926,1.0692 2.13926,2.13841c0,1.06921 -1.06963,2.13841 -2.13926,2.13841l-13.19211,0.3564c-1.06963,0 -2.13927,-1.0692 -2.13927,-2.13841c0,-1.06921 1.06964,-2.13841 2.13927,-2.13841h4.63506v-28.15567h-9.27013c0.71308,2.85121 1.42618,8.55363 1.42618,8.55363c0,1.06921 -0.71308,2.1384 -1.78271,2.1384c-1.06963,0.3564 -2.49581,-0.7128 -2.49581,-1.782l-1.78272,-10.69203c-0.35654,-0.7128 0,-1.4256 0.35654,-1.782c0.71308,-0.3564 1.06963,-0.7128 1.78271,-0.7128l13.9052,-0.3564c7.13087,-0.3564 13.54866,-0.71281 13.54866,-0.71281M229.30468,190.30923c1.06963,0 2.13926,1.06921 2.13926,1.782v3.56401c-0.35655,0.7128 -0.71309,3.20761 -1.42618,4.63322c-0.71309,1.06921 -1.06963,1.782 -1.78271,2.4948c-1.06963,1.06921 -2.13927,1.78201 -3.2089,2.13841c-1.42618,0.7128 -2.85235,0.7128 -4.27852,0.7128h-1.06963c-8.2005,0 -10.6963,-6.41522 -11.05285,-9.62283v-9.97923c0.35655,-5.34601 2.13926,-8.55362 4.63507,-10.33562c3.56544,-1.782 7.48741,-0.3564 8.91359,0.3564c1.06963,0.3564 2.13926,1.06921 2.85235,1.782v-3.92041c0,-1.06921 1.06964,-2.13841 2.13926,-2.13841c1.06963,0 2.13926,1.06921 2.13926,2.13841v9.62283c0,1.06921 -0.35655,1.782 -1.42618,2.1384c-1.06963,0 -2.13926,-0.3564 -2.4958,-1.0692c0,0 -2.13926,-3.20761 -4.99161,-4.27681c-2.4958,-0.7128 -3.92198,-1.0692 -4.99161,-0.3564c-1.42618,1.06921 -2.13926,3.56401 -2.4958,7.12802v9.26642c0,1.06921 0.71308,5.34601 6.41778,5.34601h1.42618c1.42618,0 1.78272,0 2.49581,-0.3564c0.71309,-0.3564 1.42617,-0.7128 1.78271,-1.0692c0.71309,-0.7128 1.06963,-1.06921 1.42618,-1.782c0.35655,-0.7128 0.71309,-2.13841 0.71309,-2.85121v-3.20761c0,-1.06921 1.06963,-2.13841 2.13926,-2.13841"/></g></g></g></g></svg>
